PathFileType	4	(X/Y/Z)	RBDS03static.trc
DataRate	CameraRate	NumFrames	NumMarkers	Units	OrigDataRate	OrigDataStartFrame	OrigNumFrames
150.000000	150.000000	4	48	mm	150.000000	131	150
Frame#	Time	L.Ankle			L.Ankle.Medial			L.ASIS			L.GTR			L.Heel.Bottom			L.Heel.Lateral			L.Heel.Top			L.HF			L.Iliac.Crest			L.Knee			L.Knee.Medial			L.MT1			L.MT2			L.MT5			L.PSIS			L.Shank.Bottom.Lateral			L.Shank.Bottom.Medial			L.Shank.Top.Lateral			L.Shank.Top.Medial			L.Thigh.Bottom.Lateral			L.Thigh.Bottom.Medial			L.Thigh.Top.Lateral			L.Thigh.Top.Medial			L.TT			R.Ankle			R.Ankle.Medial			R.ASIS			R.GTR			R.Heel.Bottom			R.Heel.Lateral			R.Heel.Top			R.HF			R.Iliac.Crest			R.Knee			R.Knee.Medial			R.MT1			R.MT2			R.MT5			R.PSIS			R.Shank.Bottom.Lateral			R.Shank.Bottom.Medial			R.Shank.Top.Lateral			R.Shank.Top.Medial			R.Thigh.Bottom.Lateral			R.Thigh.Bottom.Medial			R.Thigh.Top.Lateral			R.Thigh.Top.Medial			R.TT			
		X1	Y1	Z1	X2	Y2	Z2	X3	Y3	Z3	X4	Y4	Z4	X5	Y5	Z5	X6	Y6	Z6	X7	Y7	Z7	X8	Y8	Z8	X9	Y9	Z9	X10	Y10	Z10	X11	Y11	Z11	X12	Y12	Z12	X13	Y13	Z13	X14	Y14	Z14	X15	Y15	Z15	X16	Y16	Z16	X17	Y17	Z17	X18	Y18	Z18	X19	Y19	Z19	X20	Y20	Z20	X21	Y21	Z21	X22	Y22	Z22	X23	Y23	Z23	X24	Y24	Z24	X25	Y25	Z25	X26	Y26	Z26	X27	Y27	Z27	X28	Y28	Z28	X29	Y29	Z29	X30	Y30	Z30	X31	Y31	Z31	X32	Y32	Z32	X33	Y33	Z33	X34	Y34	Z34	X35	Y35	Z35	X36	Y36	Z36	X37	Y37	Z37	X38	Y38	Z38	X39	Y39	Z39	X40	Y40	Z40	X41	Y41	Z41	X42	Y42	Z42	X43	Y43	Z43	X44	Y44	Z44	X45	Y45	Z45	X46	Y46	Z46	X47	Y47	Z47	X48	Y48	Z48	

132	0.8733333333333334	716.78955078125	111.3459854125977	1045.355346679688	727.3632202148438	119.6987686157227	1125.750610351563	848.0711059570313	1064.706176757813	1103.602294921875	781.4876708984375	959.846435546875	1049.860107421875	638.177490234375	42.51029205322266	1086.653442382813	674.5860595703125	58.01161956787109	1043.204345703125	649.1146240234375	92.7203369140625	1089.80419921875	721.6026000976563	496.297607421875	1047.952880859375	765.446533203125	1121.93115234375	1064.0908203125	720.5842895507813	552.2350463867188	1055.571655273438	721.9530029296875	536.1515502929688	1169.792846679688	859.1380004882813	62.16147613525391	1140.532104492188	867.0180053710938	73.55361938476563	1099.80517578125	835.1297607421875	55.37718200683594	1031.8251953125	686.455078125	1080.590454101563	1181.325561523438	710.2676391601563	186.3332672119141	1043.565551757813	666.72900390625	185.5016784667969	1076.428833007813	701.3582153320313	265.3035583496094	1032.6123046875	658.714111328125	265.4358215332031	1064.980224609375	735.7919921875	643.9826049804688	1048.687255859375	676.7426147460938	650.1908569335938	1093.139770507813	737.66552734375	753.9557495117188	1039.062622070313	683.058837890625	760.1500244140625	1083.091430664063	772.4569702148438	476.8211059570313	1094.5966796875	708.572509765625	110.3334045410156	1411.251708984375	728.06298828125	127.4778366088867	1333.413330078125	871.5747680664063	1072.214477539063	1316.146728515625	812.2741088867188	968.1978759765625	1385.614501953125	631.6244506835938	45.20072937011719	1364.9716796875	668.6981201171875	66.58979034423828	1410.982177734375	641.8629760742188	93.80354309082031	1364.444702148438	724.2457275390625	498.8099060058594	1409.5693359375	804.9273071289063	1134.62353515625	1362.623413085938	727.87158203125	565.7432250976563	1399.798461914063	729.911865234375	541.5902709960938	1286.001342773438	844.8021240234375	58.10652542114258	1322.973022460938	861.8890380859375	75.80399322509766	1371.216552734375	824.9605712890625	51.39290237426758	1437.77685546875	696.7239379882813	1084.013793945313	1263.854370117188	694.7013549804688	179.9109802246094	1413.298095703125	662.1441040039063	183.2983093261719	1373.046508789063	688.42626953125	264.2091674804688	1423.019653320313	655.7523803710938	263.4860534667969	1380.003173828125	765.6227416992188	674.2572021484375	1406.201293945313	699.1090087890625	675.5164794921875	1374.888549804688	764.087890625	785.3248291015625	1408.879150390625	702.91943359375	785.7642822265625	1375.593627929688	778.6329956054688	478.349853515625	1368.469360351563	
133	0.88	716.776611328125	111.3478775024414	1045.373291015625	727.3662109375	119.6947860717773	1125.757202148438	848.07080078125	1064.7080078125	1103.59619140625	781.4993286132813	959.8402099609375	1049.859619140625	638.178466796875	42.50860977172852	1086.665161132813	674.5869750976563	58.01114273071289	1043.210083007813	649.1061401367188	92.72492218017578	1089.806518554688	721.590576171875	496.3011779785156	1047.953491210938	765.4671630859375	1121.927490234375	1064.087036132813	720.5856323242188	552.2399291992188	1055.5673828125	721.9512329101563	536.1463623046875	1169.79345703125	859.144287109375	62.16507339477539	1140.536743164063	867.0239868164063	73.55654144287109	1099.806030273438	835.1243286132813	55.37722015380859	1031.833374023438	686.4620971679688	1080.583251953125	1181.321166992188	710.2593994140625	186.3363800048828	1043.575317382813	666.7257080078125	185.4951629638672	1076.433959960938	701.3580322265625	265.3046875	1032.6162109375	658.7047729492188	265.4386596679688	1064.9951171875	735.7937622070313	643.984375	1048.697021484375	676.7303466796875	650.1875610351563	1093.1435546875	737.6531982421875	753.955078125	1039.066772460938	683.0559692382813	760.1485595703125	1083.100708007813	772.4581909179688	476.8265686035156	1094.600341796875	708.5717163085938	110.3395004272461	1411.257202148438	728.0595703125	127.4878921508789	1333.418212890625	871.5702514648438	1072.202392578125	1316.127197265625	812.2736206054688	968.187744140625	1385.615356445313	631.6282958984375	45.20244216918945	1364.981079101563	668.6914672851563	66.60143280029297	1410.981323242188	641.8589477539063	93.80368804931641	1364.4365234375	724.2341918945313	498.8137512207031	1409.56787109375	804.9393920898438	1134.641357421875	1362.614013671875	727.8615112304688	565.7445678710938	1399.791259765625	729.8958740234375	541.5938110351563	1286.001220703125	844.8084106445313	58.1110725402832	1322.97314453125	861.889892578125	75.80268096923828	1371.215209960938	824.9638061523438	51.39682769775391	1437.776977539063	696.72802734375	1084.016967773438	1263.847412109375	694.70361328125	179.9092407226563	1413.298095703125	662.1521606445313	183.2956237792969	1373.048828125	688.4292602539063	264.2171630859375	1423.009155273438	655.7539672851563	263.4831848144531	1379.992065429688	765.6282958984375	674.2542114257813	1406.186645507813	699.1094360351563	675.5069580078125	1374.877319335938	764.0745239257813	785.3223266601563	1408.874755859375	702.9110717773438	785.7575073242188	1375.590576171875	778.6317138671875	478.3522644042969	1368.466674804688	
134	0.8866666666666667	716.7835693359375	111.352424621582	1045.36865234375	727.3720092773438	119.6921463012695	1125.75732421875	848.0715942382813	1064.704711914063	1103.597778320313	781.4959716796875	959.8419799804688	1049.87255859375	638.17333984375	42.50930404663086	1086.661499023438	674.578369140625	58.00917434692383	1043.212280273438	649.110595703125	92.71920013427734	1089.814331054688	721.585205078125	496.3088989257813	1047.952392578125	765.4829711914063	1121.923461914063	1064.087646484375	720.5728759765625	552.23095703125	1055.565551757813	721.9380493164063	536.1383666992188	1169.802001953125	859.137939453125	62.16290664672852	1140.546630859375	867.0043334960938	73.55725860595703	1099.80517578125	835.1182250976563	55.3715705871582	1031.837524414063	686.4706420898438	1080.578857421875	1181.30859375	710.2630004882813	186.3313598632813	1043.593627929688	666.7272338867188	185.4945983886719	1076.446655273438	701.3516235351563	265.3014526367188	1032.621337890625	658.702392578125	265.4415893554688	1064.992919921875	735.7849731445313	643.9864501953125	1048.70068359375	676.72265625	650.1961669921875	1093.14501953125	737.6580810546875	753.953125	1039.073120117188	683.0601196289063	760.1503295898438	1083.108032226563	772.449951171875	476.8314514160156	1094.607177734375	708.5726318359375	110.3354568481445	1411.251831054688	728.0588989257813	127.487548828125	1333.410766601563	871.5752563476563	1072.207763671875	1316.130859375	812.261474609375	968.2023315429688	1385.62109375	631.6301879882813	45.20389556884766	1364.974365234375	668.7000122070313	66.59459686279297	1410.983520507813	641.84912109375	93.81540679931641	1364.438842773438	724.2330932617188	498.810302734375	1409.563720703125	804.9590454101563	1134.654907226563	1362.6025390625	727.84521484375	565.7401123046875	1399.778686523438	729.8939208984375	541.584228515625	1285.994384765625	844.8091430664063	58.11336898803711	1322.9833984375	861.8969116210938	75.80818176269531	1371.22119140625	824.961669921875	51.38510513305664	1437.766479492188	696.7277221679688	1084.020751953125	1263.843994140625	694.7034912109375	179.914794921875	1413.298095703125	662.1535034179688	183.3008575439453	1373.034423828125	688.4278564453125	264.2197265625	1423.00244140625	655.755126953125	263.4844360351563	1379.99072265625	765.6100463867188	674.245849609375	1406.186645507813	699.0972900390625	675.5068359375	1374.871826171875	764.0635986328125	785.3131103515625	1408.865234375	702.9055786132813	785.75	1375.596069335938	778.6317138671875	478.3599548339844	1368.454467773438	
135	0.8933333333333334	716.7733764648438	111.3561706542969	1045.370727539063	727.3607177734375	119.6976928710938	1125.761596679688	848.076904296875	1064.699096679688	1103.607177734375	781.5072021484375	959.8561401367188	1049.86083984375	638.1757202148438	42.51416778564453	1086.6611328125	674.582763671875	58.01536560058594	1043.213256835938	649.1063842773438	92.72360992431641	1089.81982421875	721.5831909179688	496.3071594238281	1047.9609375	765.5208129882813	1121.932006835938	1064.098266601563	720.5747680664063	552.2305297851563	1055.581665039063	721.941650390625	536.1483154296875	1169.8154296875	859.1307983398438	62.16521835327148	1140.535400390625	867.011474609375	73.55863952636719	1099.805541992188	835.12255859375	55.37209701538086	1031.83837890625	686.462890625	1080.589965820313	1181.303588867188	710.256591796875	186.344482421875	1043.587524414063	666.7247314453125	185.4930267333984	1076.451416015625	701.3461303710938	265.3079528808594	1032.62939453125	658.7017822265625	265.4384155273438	1064.996948242188	735.7732543945313	643.9769287109375	1048.708129882813	676.7142333984375	650.19384765625	1093.15869140625	737.6600952148438	753.9503173828125	1039.07421875	683.048583984375	760.1456909179688	1083.103759765625	772.448974609375	476.8401794433594	1094.607055664063	708.5801391601563	110.3354873657227	1411.244018554688	728.05078125	127.4902725219727	1333.400390625	871.5709838867188	1072.20458984375	1316.129516601563	812.2514038085938	968.1990356445313	1385.624267578125	631.6199951171875	45.21126556396484	1364.972412109375	668.7027587890625	66.59696960449219	1410.97265625	641.860107421875	93.81006622314453	1364.431396484375	724.214111328125	498.8170776367188	1409.558715820313	804.9619140625	1134.657104492188	1362.59912109375	727.847412109375	565.7437744140625	1399.773071289063	729.8823852539063	541.5794067382813	1285.986206054688	844.8126831054688	58.1127815246582	1322.983154296875	861.8977661132813	75.80670928955078	1371.21923828125	824.9607543945313	51.3928108215332	1437.779174804688	696.7244873046875	1084.024536132813	1263.836791992188	694.7057495117188	179.9195709228516	1413.288208007813	662.15234375	183.3031921386719	1373.02978515625	688.4235229492188	264.2238464355469	1422.984985351563	655.7528686523438	263.4858703613281	1379.983154296875	765.601318359375	674.248046875	1406.179321289063	699.0883178710938	675.5081787109375	1374.857055664063	764.0453491210938	785.3027954101563	1408.864624023438	702.8886108398438	785.7555541992188	1375.582885742188	778.6271362304688	478.3582153320313	1368.45361328125	
